<?xml version="1.0" encoding="UTF-8"?>
<svg xmlns="http://www.w3.org/2000/svg" xmlns:xlink="http://www.w3.org/1999/xlink" width="24px" height="24px" viewBox="0 0 24 24" version="1.1">
<g id="surface1">
<path style=" stroke:none;fill-rule:nonzero;fill:rgb(14.901961%,30.19608%,89.411765%);fill-opacity:1;" d="M 3.34375 21.601562 L 1.417969 0 L 22.582031 0 L 20.652344 21.597656 L 11.988281 24 Z M 3.34375 21.601562 "/>
<path style=" stroke:none;fill-rule:nonzero;fill:rgb(16.078432%,39.607844%,94.509804%);fill-opacity:1;" d="M 19.003906 20.222656 L 20.648438 1.765625 L 12 1.765625 L 12 22.164062 Z M 19.003906 20.222656 "/>
<path style=" stroke:none;fill-rule:nonzero;fill:rgb(92.156863%,92.156863%,92.156863%);fill-opacity:1;" d="M 5.835938 9.777344 L 6.070312 12.425781 L 12 12.425781 L 12 9.777344 Z M 5.597656 7.066406 L 12 7.066406 L 12 4.414062 L 5.355469 4.414062 Z M 12 16.65625 L 11.988281 16.660156 L 9.039062 15.863281 L 8.847656 13.75 L 6.191406 13.75 L 6.5625 17.910156 L 11.988281 19.417969 L 12 19.414062 Z M 12 16.65625 "/>
<path style=" stroke:none;fill-rule:nonzero;fill:rgb(100%,100%,100%);fill-opacity:1;" d="M 11.992188 9.777344 L 11.992188 12.425781 L 15.253906 12.425781 L 14.945312 15.863281 L 11.992188 16.660156 L 11.992188 19.417969 L 17.421875 17.910156 L 17.460938 17.464844 L 18.085938 10.488281 L 18.148438 9.777344 L 18.628906 4.414062 L 11.992188 4.414062 L 11.992188 7.066406 L 15.722656 7.066406 L 15.484375 9.777344 Z M 11.992188 9.777344 "/>
</g>
</svg>
