<?xml version="1.0" encoding="UTF-8"?>
<svg xmlns="http://www.w3.org/2000/svg" xmlns:xlink="http://www.w3.org/1999/xlink" width="32px" height="32px" viewBox="0 0 32 32" version="1.1">
<g id="surface1">
<path style=" stroke:none;fill-rule:nonzero;fill:rgb(0%,0%,0%);fill-opacity:1;" d="M 16.179688 0.00390625 C 15.519531 -0.0273438 14.859375 0.128906 14.285156 0.460938 L 3.398438 6.746094 C 2.867188 7.054688 2.429688 7.5 2.128906 8.035156 L 7.40625 10.929688 C 7.605469 10.605469 7.882812 10.339844 8.210938 10.144531 L 14.8125 6.332031 C 15.535156 5.914062 16.429688 5.914062 17.15625 6.332031 L 23.757812 10.144531 C 24.03125 10.300781 24.269531 10.507812 24.460938 10.757812 L 29.6875 7.738281 C 29.402344 7.332031 29.03125 6.996094 28.601562 6.746094 L 17.722656 0.460938 C 17.253906 0.191406 16.726562 0.0390625 16.183594 0.0078125 Z M 15.988281 6.554688 C 15.667969 6.554688 15.355469 6.636719 15.078125 6.796875 L 8.480469 10.605469 C 8.234375 10.746094 8.027344 10.945312 7.875 11.183594 L 10.433594 12.589844 C 10.546875 12.441406 10.6875 12.316406 10.847656 12.222656 L 15.300781 9.652344 C 15.734375 9.402344 16.269531 9.402344 16.703125 9.652344 L 21.152344 12.222656 C 21.269531 12.296875 21.375 12.386719 21.46875 12.488281 L 21.492188 12.476562 L 21.488281 12.472656 L 23.992188 11.035156 C 23.855469 10.859375 23.683594 10.714844 23.496094 10.605469 L 16.894531 6.789062 C 16.617188 6.632812 16.304688 6.550781 15.988281 6.554688 Z M 29.894531 8.085938 L 24.667969 11.097656 C 24.84375 11.433594 24.933594 11.804688 24.9375 12.179688 L 24.9375 19.800781 C 24.9375 20.636719 24.492188 21.414062 23.761719 21.839844 L 17.164062 25.652344 C 16.898438 25.800781 16.609375 25.898438 16.308594 25.9375 L 16.308594 31.96875 C 16.804688 31.933594 17.285156 31.792969 17.722656 31.550781 L 28.605469 25.269531 C 29.667969 24.65625 30.320312 23.523438 30.324219 22.292969 L 30.324219 9.730469 C 30.320312 9.15625 30.175781 8.59375 29.898438 8.09375 Z M 1.980469 8.402344 C 1.792969 8.816406 1.691406 9.265625 1.675781 9.722656 L 1.675781 22.296875 C 1.675781 23.519531 2.332031 24.652344 3.402344 25.269531 L 14.285156 31.550781 C 14.78125 31.835938 15.34375 31.988281 15.917969 32 L 15.917969 25.957031 C 15.527344 25.949219 15.144531 25.839844 14.808594 25.644531 L 8.207031 21.839844 C 7.484375 21.417969 7.039062 20.640625 7.039062 19.800781 L 7.039062 12.179688 C 7.039062 11.871094 7.097656 11.566406 7.214844 11.28125 Z M 24.207031 11.367188 L 21.6875 12.824219 C 21.789062 13.011719 21.84375 13.222656 21.851562 13.4375 L 21.851562 18.578125 C 21.851562 19.082031 21.585938 19.539062 21.152344 19.785156 L 16.703125 22.359375 C 16.578125 22.425781 16.445312 22.476562 16.308594 22.503906 L 16.308594 25.394531 C 16.511719 25.359375 16.714844 25.292969 16.894531 25.1875 L 23.496094 21.375 C 24.054688 21.050781 24.402344 20.449219 24.402344 19.800781 L 24.402344 12.179688 C 24.398438 11.898438 24.332031 11.621094 24.207031 11.371094 Z M 7.691406 11.539062 C 7.613281 11.746094 7.574219 11.960938 7.574219 12.179688 L 7.574219 19.800781 C 7.574219 20.449219 7.917969 21.050781 8.480469 21.375 L 15.078125 25.1875 C 15.339844 25.335938 15.628906 25.410156 15.914062 25.425781 L 15.914062 22.523438 C 15.703125 22.519531 15.492188 22.460938 15.300781 22.363281 L 10.851562 19.789062 C 10.417969 19.542969 10.148438 19.082031 10.144531 18.578125 L 10.144531 13.441406 C 10.144531 13.269531 10.179688 13.097656 10.246094 12.9375 L 10.203125 12.917969 Z M 7.691406 11.539062 "/>
</g>
</svg>
