<?xml version="1.0" encoding="UTF-8"?>
<svg xmlns="http://www.w3.org/2000/svg" xmlns:xlink="http://www.w3.org/1999/xlink" width="30px" height="30px" viewBox="0 0 30 29" version="1.1">
<g id="surface1">
<path style=" stroke:none;fill-rule:nonzero;fill:rgb(0%,32.941177%,41.960785%);fill-opacity:1;" d="M 27.613281 22.351562 C 25.984375 22.308594 24.71875 22.46875 23.660156 22.910156 C 23.355469 23.03125 22.863281 23.03125 22.824219 23.410156 C 22.988281 23.570312 23.007812 23.832031 23.148438 24.050781 C 23.394531 24.453125 23.824219 24.992188 24.210938 25.273438 C 24.636719 25.59375 25.066406 25.914062 25.515625 26.195312 C 26.308594 26.675781 27.207031 26.953125 27.980469 27.433594 C 28.429688 27.714844 28.878906 28.074219 29.328125 28.375 C 29.550781 28.535156 29.695312 28.796875 29.980469 28.898438 L 29.980469 28.835938 C 29.835938 28.65625 29.796875 28.394531 29.652344 28.195312 C 29.449219 27.996094 29.246094 27.816406 29.042969 27.617188 C 28.449219 26.835938 27.71875 26.152344 26.921875 25.59375 C 26.269531 25.152344 24.84375 24.550781 24.578125 23.8125 C 24.578125 23.8125 24.558594 23.792969 24.535156 23.769531 C 24.984375 23.730469 25.515625 23.570312 25.941406 23.449219 C 26.636719 23.269531 27.269531 23.3125 27.980469 23.128906 C 28.308594 23.050781 28.632812 22.949219 28.960938 22.851562 L 28.960938 22.671875 C 28.59375 22.308594 28.328125 21.828125 27.941406 21.488281 C 26.902344 20.609375 25.757812 19.746094 24.578125 19.027344 C 23.945312 18.625 23.128906 18.367188 22.457031 18.023438 C 22.210938 17.90625 21.804688 17.84375 21.660156 17.644531 C 21.292969 17.203125 21.089844 16.625 20.824219 16.101562 C 20.234375 15 19.664062 13.78125 19.152344 12.621094 C 18.785156 11.839844 18.5625 11.058594 18.113281 10.335938 C 16.015625 6.933594 13.730469 4.871094 10.222656 2.847656 C 9.46875 2.429688 8.574219 2.25 7.613281 2.027344 C 7.105469 2.007812 6.59375 1.96875 6.085938 1.949219 C 5.757812 1.808594 5.433594 1.425781 5.148438 1.246094 C 3.984375 0.527344 0.988281 -1.035156 0.132812 1.027344 C -0.417969 2.328125 0.945312 3.609375 1.414062 4.269531 C 1.761719 4.730469 2.210938 5.25 2.457031 5.773438 C 2.597656 6.113281 2.640625 6.472656 2.78125 6.832031 C 3.109375 7.714844 3.414062 8.695312 3.84375 9.515625 C 4.066406 9.9375 4.3125 10.378906 4.597656 10.757812 C 4.757812 10.976562 5.046875 11.078125 5.105469 11.4375 C 4.820312 11.839844 4.800781 12.4375 4.636719 12.941406 C 3.902344 15.203125 4.1875 18.003906 5.230469 19.667969 C 5.554688 20.167969 6.328125 21.269531 7.371094 20.847656 C 8.285156 20.488281 8.082031 19.347656 8.347656 18.34375 C 8.410156 18.105469 8.367188 17.945312 8.492188 17.785156 C 8.492188 17.804688 8.492188 17.824219 8.492188 17.824219 C 8.777344 18.386719 9.0625 18.925781 9.328125 19.488281 C 9.957031 20.46875 11.058594 21.488281 11.976562 22.167969 C 12.464844 22.53125 12.855469 23.152344 13.464844 23.371094 L 13.464844 23.3125 L 13.425781 23.3125 C 13.300781 23.128906 13.117188 23.050781 12.957031 22.910156 C 12.589844 22.550781 12.179688 22.109375 11.894531 21.710938 C 11.039062 20.585938 10.285156 19.347656 9.613281 18.066406 C 9.285156 17.445312 9 16.765625 8.734375 16.144531 C 8.613281 15.902344 8.613281 15.542969 8.410156 15.421875 C 8.101562 15.863281 7.65625 16.242188 7.429688 16.785156 C 7.042969 17.644531 7.003906 18.707031 6.859375 19.808594 C 6.777344 19.828125 6.820312 19.808594 6.777344 19.847656 C 6.125 19.6875 5.902344 19.027344 5.65625 18.464844 C 5.046875 17.042969 4.941406 14.761719 5.472656 13.121094 C 5.617188 12.699219 6.226562 11.378906 5.984375 10.976562 C 5.859375 10.597656 5.453125 10.378906 5.230469 10.078125 C 4.964844 9.695312 4.679688 9.214844 4.496094 8.796875 C 4.003906 7.675781 3.761719 6.433594 3.230469 5.3125 C 2.984375 4.789062 2.558594 4.25 2.210938 3.769531 C 1.824219 3.230469 1.394531 2.847656 1.089844 2.207031 C 0.988281 1.988281 0.84375 1.628906 1.007812 1.386719 C 1.050781 1.226562 1.128906 1.167969 1.292969 1.128906 C 1.558594 0.90625 2.3125 1.1875 2.578125 1.308594 C 3.332031 1.605469 3.964844 1.886719 4.597656 2.308594 C 4.882812 2.507812 5.1875 2.890625 5.554688 2.988281 L 5.984375 2.988281 C 6.636719 3.128906 7.371094 3.027344 7.980469 3.210938 C 9.0625 3.550781 10.039062 4.050781 10.917969 4.589844 C 13.589844 6.253906 15.789062 8.613281 17.277344 11.4375 C 17.523438 11.898438 17.625 12.320312 17.847656 12.800781 C 18.277344 13.78125 18.808594 14.78125 19.234375 15.742188 C 19.664062 16.683594 20.070312 17.644531 20.683594 18.425781 C 20.988281 18.847656 22.210938 19.066406 22.761719 19.285156 C 23.171875 19.464844 23.800781 19.628906 24.167969 19.847656 C 24.863281 20.265625 25.554688 20.75 26.207031 21.207031 C 26.535156 21.449219 27.554688 21.949219 27.613281 22.351562 Z M 27.613281 22.351562 "/>
<path style=" stroke:none;fill-rule:nonzero;fill:rgb(0%,32.941177%,41.960785%);fill-opacity:1;" d="M 6.820312 4.949219 C 6.472656 4.949219 6.226562 4.992188 5.984375 5.050781 C 5.984375 5.050781 5.984375 5.070312 5.984375 5.089844 L 6.023438 5.089844 C 6.1875 5.410156 6.472656 5.632812 6.675781 5.914062 C 6.839844 6.230469 6.980469 6.554688 7.144531 6.875 C 7.164062 6.851562 7.1875 6.832031 7.1875 6.832031 C 7.472656 6.632812 7.613281 6.3125 7.613281 5.832031 C 7.492188 5.691406 7.472656 5.550781 7.371094 5.410156 C 7.246094 5.210938 6.980469 5.109375 6.820312 4.949219 Z M 6.820312 4.949219 "/>
</g>
</svg>
