<?xml version="1.0" encoding="UTF-8"?>
<svg xmlns="http://www.w3.org/2000/svg" xmlns:xlink="http://www.w3.org/1999/xlink" width="25px" height="28px" viewBox="0 0 25 28" version="1.1">
<g id="surface1">
<path style=" stroke:none;fill-rule:nonzero;fill:rgb(32.549021%,61.960787%,26.274511%);fill-opacity:1;" d="M 12.5 27.949219 C 12.113281 27.949219 11.75 27.84375 11.414062 27.664062 L 7.972656 25.636719 C 7.453125 25.355469 7.710938 25.253906 7.867188 25.199219 C 8.566406 24.96875 8.695312 24.917969 9.421875 24.507812 C 9.496094 24.457031 9.601562 24.480469 9.679688 24.53125 L 12.320312 26.097656 C 12.421875 26.152344 12.550781 26.152344 12.628906 26.097656 L 22.957031 20.167969 C 23.058594 20.117188 23.109375 20.015625 23.109375 19.886719 L 23.109375 8.050781 C 23.109375 7.921875 23.058594 7.816406 22.957031 7.765625 L 12.628906 1.863281 C 12.527344 1.808594 12.394531 1.808594 12.320312 1.863281 L 1.992188 7.765625 C 1.890625 7.816406 1.835938 7.945312 1.835938 8.050781 L 1.835938 19.886719 C 1.835938 19.988281 1.890625 20.117188 1.992188 20.167969 L 4.8125 21.785156 C 6.339844 22.554688 7.296875 21.65625 7.296875 20.757812 L 7.296875 9.078125 C 7.296875 8.921875 7.425781 8.769531 7.609375 8.769531 L 8.929688 8.769531 C 9.082031 8.769531 9.238281 8.898438 9.238281 9.078125 L 9.238281 20.757812 C 9.238281 22.789062 8.125 23.96875 6.183594 23.96875 C 5.589844 23.96875 5.125 23.96875 3.804688 23.328125 L 1.085938 21.785156 C 0.414062 21.402344 0 20.683594 0 19.910156 L 0 8.074219 C 0 7.304688 0.414062 6.585938 1.085938 6.199219 L 11.414062 0.269531 C 12.058594 -0.0898438 12.941406 -0.0898438 13.585938 0.269531 L 23.914062 6.199219 C 24.585938 6.585938 25 7.304688 25 8.074219 L 25 19.910156 C 25 20.683594 24.585938 21.402344 23.914062 21.785156 L 13.585938 27.71875 C 13.25 27.871094 12.863281 27.949219 12.5 27.949219 Z M 15.683594 19.808594 C 11.152344 19.808594 10.222656 17.753906 10.222656 16.007812 C 10.222656 15.855469 10.351562 15.699219 10.53125 15.699219 L 11.878906 15.699219 C 12.035156 15.699219 12.164062 15.804688 12.164062 15.957031 C 12.371094 17.316406 12.964844 17.984375 15.710938 17.984375 C 17.882812 17.984375 18.816406 17.496094 18.816406 16.34375 C 18.816406 15.675781 18.554688 15.1875 15.164062 14.851562 C 12.34375 14.570312 10.585938 13.953125 10.585938 11.722656 C 10.585938 9.640625 12.34375 8.410156 15.296875 8.410156 C 18.609375 8.410156 20.238281 9.539062 20.445312 12.003906 C 20.445312 12.082031 20.417969 12.15625 20.367188 12.234375 C 20.316406 12.285156 20.238281 12.335938 20.160156 12.335938 L 18.816406 12.335938 C 18.683594 12.335938 18.554688 12.234375 18.53125 12.105469 C 18.21875 10.695312 17.417969 10.230469 15.296875 10.230469 C 12.914062 10.230469 12.628906 11.054688 12.628906 11.667969 C 12.628906 12.414062 12.964844 12.644531 16.175781 13.054688 C 19.359375 13.46875 20.859375 14.058594 20.859375 16.265625 C 20.832031 18.523438 18.96875 19.808594 15.683594 19.808594 Z M 15.683594 19.808594 "/>
</g>
</svg>
